Coordinates
nRows=5
nColumns=38

# SIMM Motion File Header:
name Coordinates
datacolumns 38
datarows 5
otherdata 1
range 1.17050000000000010000 1.17450000000000010000

Units are S.I. units (second, meters, Newtons, ...)
Angles are in degrees.

endheader
time	pelvis_tilt	pelvis_list	pelvis_rotation	pelvis_tx	pelvis_ty	pelvis_tz	hip_flexion_r	hip_adduction_r	hip_rotation_r	knee_angle_r	ankle_angle_r	subtalar_angle_r	mtp_angle_r	hip_flexion_l	hip_adduction_l	hip_rotation_l	knee_angle_l	ankle_angle_l	subtalar_angle_l	mtp_angle_l	lumbar_extension	lumbar_bending	lumbar_rotation	arm_flex_r	arm_add_r	arm_rot_r	elbow_flex_r	pro_sup_r	wrist_flex_r	wrist_dev_r	arm_flex_l	arm_add_l	arm_rot_l	elbow_flex_l	pro_sup_l	wrist_flex_l	wrist_dev_l
      1.17050000000000010000	     -1.64719511730659150000	     -2.85742182358604160000	      0.41887178541597325000	      0.96444382843617160000	      1.05350522109655560000	     -0.31411527344355278000	     22.10907062819732600000	      6.84812639374692630000	      3.00627095551889890000	    -13.35648171183739700000	     -3.79157479987804490000	      0.00000000000000000000	      0.00000000000000000000	    -10.25103771851370700000	      1.86901663450775860000	      0.52880755540768276000	    -54.91211154557206000000	    -10.48994961504680400000	      0.00000000000000000000	      0.00000000000000000000	     -4.41714975286838120000	      6.76591039942247540000	     -6.77791267506895960000	    -39.94934657477090700000	    -12.53030316188611500000	    -10.16272492694145100000	    118.78750293770335000000	     86.69496693397053400000	      0.00000000000000000000	      0.00000000000000000000	    -19.67040531508559200000	    -15.29021190830215500000	      8.55854906740476020000	    138.80724823393575000000	     93.73856992288129700000	      0.00000000000000000000	      0.00000000000000000000
      1.17150000000000000000	     -1.62553318549049350000	     -2.86021125002550390000	      0.39773372961214570000	      0.96434786155258678000	      1.05293767510125340000	     -0.31408369803534425000	     22.10001903830326600000	      6.88742896561783450000	      3.08636765354769250000	    -13.57632318440358800000	     -3.76477492227443070000	      0.00000000000000000166	      0.00000000000000000129	    -10.06416504237413900000	      1.87582211374124520000	      0.52262460712378356000	    -55.43882600277851200000	    -10.43689110714378300000	      0.00000000000000000018	      0.00000000000000000040	     -4.46735866160743630000	      6.79152791151243380000	     -6.68619536764214040000	    -39.84472798100813400000	    -12.60885581907713000000	    -10.12466449352308700000	    118.73387674798497000000	     86.62277664938076800000	      0.00000000000000000027	     -0.00000000000000000037	    -19.76783897316226300000	    -15.37469699650361600000	      8.51809285538963220000	    138.68744768677644000000	     93.78192593492663300000	      0.00000000000000000022	      0.00000000000000000018
      1.17250000000000010000	     -1.60340865829716920000	     -2.86183310092487280000	      0.37634022102829434000	      0.96425071737810997000	      1.05236137184173350000	     -0.31405035484744603000	     22.09018919671351000000	      6.92644297353733410000	      3.17242859427812760000	    -13.80130118824234100000	     -3.73143141476680020000	      0.00000000000000000277	      0.00000000000000000079	     -9.87627743232134310000	      1.88315096267759150000	      0.51468695062362069000	    -55.96512244221261800000	    -10.38165116934171700000	      0.00000000000000000107	     -0.00000000000000000040	     -4.51827100925511790000	      6.81545276022307340000	     -6.59396464722395240000	    -39.73802198895293000000	    -12.68819593622476200000	    -10.08556248142868700000	    118.67870596785299000000	     86.55153063569285600000	      0.00000000000000000082	     -0.00000000000000000117	    -19.86592192660968700000	    -15.45974809293474400000	      8.47637929089710340000	    138.56621526554386000000	     93.82676579504290300000	      0.00000000000000000121	      0.00000000000000000142
      1.17350000000000000000	     -1.58078620365620700000	     -2.86232693483848740000	      0.35469197000439445000	      0.96415242399494550000	      1.05177639505041040000	     -0.31401519704700309000	     22.07950472681353900000	      6.96521988362748880000	      3.26409743671857330000	    -14.03127049874063700000	     -3.69240031573601210000	      0.00000000000000000367	      0.00000000000000000140	     -9.68744365711704880000	      1.89092614023987090000	      0.50497532957767544000	    -56.49094156024799000000	    -10.32407241099259000000	      0.00000000000000000223	     -0.00000000000000000041	     -4.56992435243272240000	      6.83772417495539120000	     -6.50120696519368830000	    -39.62923897507032200000	    -12.76828801155697400000	    -10.04545701294594700000	    118.62200539480709000000	     86.48128667523111800000	      0.00000000000000000136	     -0.00000000000000000149	    -19.96462896912607100000	    -15.54535578846895700000	      8.43342475239327170000	    138.44355974332075000000	     93.87294864863970600000	      0.00000000000000000316	      0.00000000000000000210
      1.17450000000000010000	     -1.55762096517466130000	     -2.86172147168560990000	      0.33282003546593558000	      0.96405303886593297000	      1.05118281282975420000	     -0.31397820452671793000	     22.06785691323742100000	      7.00379987095340970000	      3.36103195012847110000	    -14.26606003462562100000	     -3.64719869503739780000	      0.00000000000000000452	      0.00000000000000000188	     -9.49774653136128850000	      1.89907483407610570000	      0.49350000392017712000	    -57.01622260320434100000	    -10.26397916701252600000	      0.00000000000000000228	      0.00000000000000000032	     -4.62235965730086560000	      6.85836810297732670000	     -6.40793644458614690000	    -39.51839822044597400000	    -12.84908167510633700000	    -10.00439194871194300000	    118.56379869612203000000	     86.41211519607654200000	      0.00000000000000000196	     -0.00000000000000000184	    -20.06393760758819100000	    -15.63151855021255600000	      8.38924463277312070000	    138.31950265625673000000	     93.92028735540003500000	      0.00000000000000000578	      0.00000000000000000283
